<mxfile host="Electron" modified="2024-06-08T11:16:59.306Z" agent="Mozilla/5.0 (X11; Linux x86_64) AppleWebKit/537.36 (KHTML, like Gecko) draw.io/24.4.8 Chrome/124.0.6367.207 Electron/30.0.6 Safari/537.36" etag="lsSpkpYd54nXZZ0AqPix" version="24.3.1" type="device">
  <diagram name="Page-1" id="SSmiCroFpeTEEwWF18AN">
    <mxGraphModel dx="590" dy="548" grid="1" gridSize="10" guides="1" tooltips="1" connect="1" arrows="1" fold="1" page="1" pageScale="1" pageWidth="827" pageHeight="1169" math="0" shadow="0">
      <root>
        <mxCell id="0" />
        <mxCell id="1" parent="0" />
        <mxCell id="qvXzuBhZl2gwP-Ttpibh-1" value="Bicycle" style="swimlane;fontStyle=1;align=center;verticalAlign=top;childLayout=stackLayout;horizontal=1;startSize=26;horizontalStack=0;resizeParent=1;resizeParentMax=0;resizeLast=0;collapsible=1;marginBottom=0;whiteSpace=wrap;html=1;" vertex="1" parent="1">
          <mxGeometry x="120" y="160" width="220" height="250" as="geometry" />
        </mxCell>
        <mxCell id="qvXzuBhZl2gwP-Ttpibh-2" value="- gear: int&lt;div&gt;- frontLight: boolean&lt;/div&gt;&lt;div&gt;- rearLight: boolean&lt;/div&gt;&lt;div&gt;- frontWheel: Wheel&lt;/div&gt;&lt;div&gt;- rearWheel: Wheel&lt;/div&gt;" style="text;strokeColor=none;fillColor=none;align=left;verticalAlign=top;spacingLeft=4;spacingRight=4;overflow=hidden;rotatable=0;points=[[0,0.5],[1,0.5]];portConstraint=eastwest;whiteSpace=wrap;html=1;" vertex="1" parent="qvXzuBhZl2gwP-Ttpibh-1">
          <mxGeometry y="26" width="220" height="84" as="geometry" />
        </mxCell>
        <mxCell id="qvXzuBhZl2gwP-Ttpibh-3" value="" style="line;strokeWidth=1;fillColor=none;align=left;verticalAlign=middle;spacingTop=-1;spacingLeft=3;spacingRight=3;rotatable=0;labelPosition=right;points=[];portConstraint=eastwest;strokeColor=inherit;" vertex="1" parent="qvXzuBhZl2gwP-Ttpibh-1">
          <mxGeometry y="110" width="220" height="8" as="geometry" />
        </mxCell>
        <mxCell id="qvXzuBhZl2gwP-Ttpibh-4" value="+ peddel(): void&lt;div&gt;+ changeGearUp(): void&lt;/div&gt;&lt;div&gt;+ changeGearDown(): void&lt;/div&gt;&lt;div&gt;+ mountWheel(front: boolean): void&lt;/div&gt;&lt;div&gt;+ unmountWheel(front: boolean): void&lt;/div&gt;&lt;div&gt;+ pressBreakFront(): void&lt;/div&gt;&lt;div&gt;+ pressBreakRear(): void&lt;/div&gt;&lt;div&gt;+ main(args: String[]): void&lt;/div&gt;" style="text;strokeColor=none;fillColor=none;align=left;verticalAlign=top;spacingLeft=4;spacingRight=4;overflow=hidden;rotatable=0;points=[[0,0.5],[1,0.5]];portConstraint=eastwest;whiteSpace=wrap;html=1;" vertex="1" parent="qvXzuBhZl2gwP-Ttpibh-1">
          <mxGeometry y="118" width="220" height="132" as="geometry" />
        </mxCell>
        <mxCell id="qvXzuBhZl2gwP-Ttpibh-5" value="Tire" style="swimlane;fontStyle=1;align=center;verticalAlign=top;childLayout=stackLayout;horizontal=1;startSize=26;horizontalStack=0;resizeParent=1;resizeParentMax=0;resizeLast=0;collapsible=1;marginBottom=0;whiteSpace=wrap;html=1;" vertex="1" parent="1">
          <mxGeometry x="406" y="310" width="160" height="86" as="geometry" />
        </mxCell>
        <mxCell id="qvXzuBhZl2gwP-Ttpibh-6" value="+ flat: boolean" style="text;strokeColor=none;fillColor=none;align=left;verticalAlign=top;spacingLeft=4;spacingRight=4;overflow=hidden;rotatable=0;points=[[0,0.5],[1,0.5]];portConstraint=eastwest;whiteSpace=wrap;html=1;" vertex="1" parent="qvXzuBhZl2gwP-Ttpibh-5">
          <mxGeometry y="26" width="160" height="26" as="geometry" />
        </mxCell>
        <mxCell id="qvXzuBhZl2gwP-Ttpibh-7" value="" style="line;strokeWidth=1;fillColor=none;align=left;verticalAlign=middle;spacingTop=-1;spacingLeft=3;spacingRight=3;rotatable=0;labelPosition=right;points=[];portConstraint=eastwest;strokeColor=inherit;" vertex="1" parent="qvXzuBhZl2gwP-Ttpibh-5">
          <mxGeometry y="52" width="160" height="8" as="geometry" />
        </mxCell>
        <mxCell id="qvXzuBhZl2gwP-Ttpibh-8" value="+ repair(): void" style="text;strokeColor=none;fillColor=none;align=left;verticalAlign=top;spacingLeft=4;spacingRight=4;overflow=hidden;rotatable=0;points=[[0,0.5],[1,0.5]];portConstraint=eastwest;whiteSpace=wrap;html=1;" vertex="1" parent="qvXzuBhZl2gwP-Ttpibh-5">
          <mxGeometry y="60" width="160" height="26" as="geometry" />
        </mxCell>
        <mxCell id="qvXzuBhZl2gwP-Ttpibh-9" value="Wheel" style="swimlane;fontStyle=1;align=center;verticalAlign=top;childLayout=stackLayout;horizontal=1;startSize=26;horizontalStack=0;resizeParent=1;resizeParentMax=0;resizeLast=0;collapsible=1;marginBottom=0;whiteSpace=wrap;html=1;" vertex="1" parent="1">
          <mxGeometry x="406" y="205" width="160" height="52" as="geometry" />
        </mxCell>
        <mxCell id="qvXzuBhZl2gwP-Ttpibh-10" value="+ tire: Tire" style="text;strokeColor=none;fillColor=none;align=left;verticalAlign=top;spacingLeft=4;spacingRight=4;overflow=hidden;rotatable=0;points=[[0,0.5],[1,0.5]];portConstraint=eastwest;whiteSpace=wrap;html=1;" vertex="1" parent="qvXzuBhZl2gwP-Ttpibh-9">
          <mxGeometry y="26" width="160" height="26" as="geometry" />
        </mxCell>
        <mxCell id="qvXzuBhZl2gwP-Ttpibh-13" value="" style="endArrow=diamondThin;endFill=1;endSize=24;html=1;rounded=0;entryX=1;entryY=0.5;entryDx=0;entryDy=0;exitX=-0.002;exitY=-0.112;exitDx=0;exitDy=0;exitPerimeter=0;" edge="1" parent="1" source="qvXzuBhZl2gwP-Ttpibh-10" target="qvXzuBhZl2gwP-Ttpibh-2">
          <mxGeometry width="160" relative="1" as="geometry">
            <mxPoint x="400" y="480" as="sourcePoint" />
            <mxPoint x="560" y="480" as="targetPoint" />
          </mxGeometry>
        </mxCell>
        <mxCell id="qvXzuBhZl2gwP-Ttpibh-19" value="2" style="text;html=1;align=center;verticalAlign=middle;whiteSpace=wrap;rounded=0;" vertex="1" parent="1">
          <mxGeometry x="380" y="205" width="26" height="21" as="geometry" />
        </mxCell>
        <mxCell id="qvXzuBhZl2gwP-Ttpibh-20" value="" style="endArrow=diamondThin;endFill=1;endSize=24;html=1;rounded=0;entryX=0.497;entryY=0.965;entryDx=0;entryDy=0;exitX=0.5;exitY=0;exitDx=0;exitDy=0;entryPerimeter=0;" edge="1" parent="1" source="qvXzuBhZl2gwP-Ttpibh-5" target="qvXzuBhZl2gwP-Ttpibh-10">
          <mxGeometry width="160" relative="1" as="geometry">
            <mxPoint x="416" y="238" as="sourcePoint" />
            <mxPoint x="342" y="238" as="targetPoint" />
          </mxGeometry>
        </mxCell>
        <mxCell id="qvXzuBhZl2gwP-Ttpibh-22" value="1" style="text;html=1;align=center;verticalAlign=middle;whiteSpace=wrap;rounded=0;" vertex="1" parent="1">
          <mxGeometry x="480" y="290" width="26" height="21" as="geometry" />
        </mxCell>
      </root>
    </mxGraphModel>
  </diagram>
</mxfile>
